<svg width="1280" height="760" viewBox="0 0 1280 760" fill="none" xmlns="http://www.w3.org/2000/svg">
  <rect width="1280" height="760" rx="28" fill="#07111F"/>
  <rect x="40" y="34" width="1200" height="692" rx="22" fill="#0B1628" stroke="#17304B"/>
  <text x="78" y="116" fill="#E6EDF3" font-size="34" font-family="Arial, Helvetica, sans-serif" font-weight="700">Star a repo, then place it into lists immediately</text>
  <rect x="80" y="164" width="500" height="80" rx="18" fill="#0F1E34" stroke="#224062"/>
  <text x="108" y="212" fill="#E6EDF3" font-size="28" font-family="Arial, Helvetica, sans-serif">repo: Fldicoahkiin/GithubStarListsPlus</text>
  <rect x="820" y="156" width="140" height="48" rx="12" fill="#153B2B" stroke="#2E8B57"/>
  <text x="852" y="187" fill="#D1FAE5" font-size="22" font-family="Arial, Helvetica, sans-serif">Starred</text>
  <rect x="976" y="156" width="164" height="48" rx="12" fill="#10304A" stroke="#285C7D"/>
  <text x="1012" y="187" fill="#9CD4FF" font-size="22" font-family="Arial, Helvetica, sans-serif">Lists</text>

  <rect x="764" y="228" width="398" height="400" rx="22" fill="#111F35" stroke="#285C7D"/>
  <text x="796" y="272" fill="#E6EDF3" font-size="28" font-family="Arial, Helvetica, sans-serif" font-weight="700">Manage lists</text>
  <rect x="796" y="294" width="334" height="48" rx="12" fill="#091725" stroke="#285C7D"/>
  <text x="822" y="324" fill="#7F9DBB" font-size="20" font-family="Arial, Helvetica, sans-serif">Search list name</text>

  <rect x="796" y="366" width="334" height="58" rx="14" fill="#10304A" stroke="#3B82F6"/>
  <rect x="818" y="386" width="18" height="18" rx="4" fill="#22C55E"/>
  <text x="854" y="402" fill="#E6EDF3" font-size="22" font-family="Arial, Helvetica, sans-serif">reading</text>

  <rect x="796" y="438" width="334" height="58" rx="14" fill="#0E1D34" stroke="#224062"/>
  <rect x="818" y="458" width="18" height="18" rx="4" fill="#0B1628" stroke="#5B7FA3"/>
  <text x="854" y="474" fill="#E6EDF3" font-size="22" font-family="Arial, Helvetica, sans-serif">workflow</text>

  <rect x="796" y="510" width="334" height="58" rx="14" fill="#10304A" stroke="#3B82F6"/>
  <rect x="818" y="530" width="18" height="18" rx="4" fill="#22C55E"/>
  <text x="854" y="546" fill="#E6EDF3" font-size="22" font-family="Arial, Helvetica, sans-serif">github-ui</text>

  <rect x="952" y="588" width="178" height="44" rx="12" fill="#153B2B" stroke="#2E8B57"/>
  <text x="1000" y="617" fill="#D1FAE5" font-size="20" font-family="Arial, Helvetica, sans-serif">Save changes</text>

  <rect x="80" y="276" width="586" height="120" rx="20" fill="#0F1E34" stroke="#224062"/>
  <text x="110" y="324" fill="#E6EDF3" font-size="30" font-family="Arial, Helvetica, sans-serif" font-weight="700">Current list badges</text>
  <rect x="112" y="344" width="104" height="30" rx="15" fill="#1B4332"/>
  <text x="138" y="364" fill="#C7F9CC" font-size="16" font-family="Arial, Helvetica, sans-serif">reading</text>
  <rect x="228" y="344" width="118" height="30" rx="15" fill="#4C1D95"/>
  <text x="253" y="364" fill="#E9D5FF" font-size="16" font-family="Arial, Helvetica, sans-serif">github-ui</text>

  <rect x="80" y="428" width="586" height="174" rx="20" fill="#0F1E34" stroke="#224062"/>
  <text x="110" y="472" fill="#E6EDF3" font-size="28" font-family="Arial, Helvetica, sans-serif" font-weight="700">Workflow goal</text>
  <text x="110" y="514" fill="#8FA9C4" font-size="22" font-family="Arial, Helvetica, sans-serif">You should be able to star a repo and assign it to one or more lists</text>
  <text x="110" y="546" fill="#8FA9C4" font-size="22" font-family="Arial, Helvetica, sans-serif">without leaving the repository page.</text>
</svg>
